# Blender v2.79 (sub 0) OBJ File: ''
# www.blender.org
v 0.000000 -1.000000 -0.726027
v 0.000000 1.000000 0.000000
v 0.187910 -1.000000 -0.701288
v 0.363013 -1.000000 -0.628758
v 0.513379 -1.000000 -0.513379
v 0.628758 -1.000000 -0.363013
v 0.701288 -1.000000 -0.187910
v 0.726027 -1.000000 0.000000
v 0.701288 -1.000000 0.187910
v 0.628758 -1.000000 0.363013
v 0.513379 -1.000000 0.513379
v 0.363014 -1.000000 0.628758
v 0.187910 -1.000000 0.701288
v 0.000000 -1.000000 0.726027
v -0.187909 -1.000000 0.701288
v -0.363013 -1.000000 0.628758
v -0.513378 -1.000000 0.513379
v -0.628758 -1.000000 0.363014
v -0.701288 -1.000000 0.187910
v -0.726027 -1.000000 0.000000
v -0.701288 -1.000000 -0.187909
v -0.628758 -1.000000 -0.363013
v -0.513379 -1.000000 -0.513378
v -0.363014 -1.000000 -0.628758
v -0.187910 -1.000000 -0.701288
v 0.093955 -1.000000 -0.713658
v 0.700943 -0.635646 -0.700943
v 0.495642 -0.635646 -0.858477
v 0.000000 -0.635646 -0.991283
v 0.275462 -1.000000 -0.665023
v 0.256563 -0.635646 -0.957506
v 0.438196 -1.000000 -0.571068
v -0.256564 -0.635646 -0.957506
v 0.571068 -1.000000 -0.438196
v -0.495642 -0.635646 -0.858476
v 0.665023 -1.000000 -0.275461
v -0.700944 -0.635646 -0.700943
v 0.713658 -1.000000 -0.093955
v -0.858477 -0.635646 -0.495641
v 0.713658 -1.000000 0.093955
v -0.957506 -0.635646 -0.256563
v 0.665023 -1.000000 0.275461
v -0.991283 -0.635646 0.000000
v 0.571068 -1.000000 0.438196
v -0.957506 -0.635646 0.256563
v 0.438196 -1.000000 0.571068
v -0.858476 -0.635646 0.495642
v 0.275462 -1.000000 0.665023
v -0.700943 -0.635646 0.700943
v 0.093955 -1.000000 0.713658
v -0.495641 -0.635646 0.858477
v -0.093955 -1.000000 0.713658
v -0.256563 -0.635646 0.957506
v -0.275461 -1.000000 0.665023
v 0.000000 -0.635646 0.991283
v -0.438196 -1.000000 0.571068
v 0.256563 -0.635646 0.957506
v -0.571068 -1.000000 0.438196
v 0.495642 -0.635646 0.858476
v -0.665023 -1.000000 0.275462
v 0.700943 -0.635646 0.700943
v -0.713657 -1.000000 0.093955
v 0.858477 -0.635646 0.495641
v -0.713658 -1.000000 -0.093954
v 0.957506 -0.635646 0.256563
v -0.665023 -1.000000 -0.275461
v 0.991283 -0.635646 0.000000
v -0.571068 -1.000000 -0.438196
v 0.957506 -0.635646 -0.256563
v -0.438196 -1.000000 -0.571068
v 0.858477 -0.635646 -0.495642
v -0.275462 -1.000000 -0.665023
v -0.093955 -1.000000 -0.713657
vn -0.0000 -0.8759 -0.4826
vn -0.0000 -0.0404 -0.9992
vn 0.0594 -0.8903 -0.4515
vn 0.1249 -0.8759 -0.4661
vn 0.2586 -0.0404 -0.9651
vn 0.1743 -0.8903 -0.4207
vn 0.2413 -0.8759 -0.4179
vn 0.4996 -0.0404 -0.8653
vn 0.2772 -0.8903 -0.3613
vn 0.3412 -0.8759 -0.3412
vn 0.7065 -0.0404 -0.7065
vn 0.3613 -0.8903 -0.2772
vn 0.4179 -0.8759 -0.2413
vn 0.8653 -0.0404 -0.4996
vn 0.4207 -0.8903 -0.1743
vn 0.4661 -0.8759 -0.1249
vn 0.9651 -0.0404 -0.2586
vn 0.4515 -0.8903 -0.0594
vn 0.4826 -0.8759 -0.0000
vn 0.9992 -0.0404 -0.0000
vn 0.4515 -0.8903 0.0594
vn 0.4661 -0.8759 0.1249
vn 0.9651 -0.0404 0.2586
vn 0.4207 -0.8903 0.1743
vn 0.4179 -0.8759 0.2413
vn 0.8653 -0.0404 0.4996
vn 0.3613 -0.8903 0.2772
vn 0.3412 -0.8759 0.3412
vn 0.7065 -0.0404 0.7065
vn 0.2772 -0.8903 0.3613
vn 0.2413 -0.8759 0.4179
vn 0.4996 -0.0404 0.8653
vn 0.1743 -0.8903 0.4207
vn 0.1249 -0.8759 0.4661
vn 0.2586 -0.0404 0.9651
vn 0.0594 -0.8903 0.4515
vn 0.0000 -0.8759 0.4826
vn 0.0000 -0.0404 0.9992
vn -0.0594 -0.8903 0.4515
vn -0.1249 -0.8759 0.4661
vn -0.2586 -0.0404 0.9651
vn -0.1743 -0.8903 0.4207
vn -0.2413 -0.8759 0.4179
vn -0.4996 -0.0404 0.8653
vn -0.2772 -0.8903 0.3613
vn -0.3412 -0.8759 0.3412
vn -0.7065 -0.0404 0.7065
vn -0.3613 -0.8903 0.2772
vn -0.4179 -0.8759 0.2413
vn -0.8653 -0.0404 0.4996
vn -0.4207 -0.8903 0.1743
vn -0.4661 -0.8759 0.1249
vn -0.9651 -0.0404 0.2586
vn -0.4515 -0.8903 0.0594
vn -0.4826 -0.8759 0.0000
vn -0.9992 -0.0404 0.0000
vn -0.4515 -0.8903 -0.0594
vn -0.4661 -0.8759 -0.1249
vn -0.9651 -0.0404 -0.2586
vn -0.4207 -0.8903 -0.1743
vn -0.4179 -0.8759 -0.2413
vn -0.8653 -0.0404 -0.4996
vn -0.3613 -0.8903 -0.2772
vn -0.3412 -0.8759 -0.3412
vn -0.7065 -0.0404 -0.7065
vn -0.2772 -0.8903 -0.3613
vn -0.2413 -0.8759 -0.4179
vn -0.4996 -0.0404 -0.8653
vn -0.1743 -0.8903 -0.4207
vn -0.1249 -0.8759 -0.4661
vn -0.2586 -0.0404 -0.9651
vn -0.0594 -0.8903 -0.4515
vn -0.0000 1.0000 0.0000
s 1
f 1//1 29//2 26//3
f 3//4 31//5 30//6
f 4//7 28//8 32//9
f 5//10 27//11 34//12
f 6//13 71//14 36//15
f 7//16 69//17 38//18
f 8//19 67//20 40//21
f 9//22 65//23 42//24
f 10//25 63//26 44//27
f 11//28 61//29 46//30
f 12//31 59//32 48//33
f 13//34 57//35 50//36
f 14//37 55//38 52//39
f 15//40 53//41 54//42
f 16//43 51//44 56//45
f 17//46 49//47 58//48
f 18//49 47//50 60//51
f 19//52 45//53 62//54
f 20//55 43//56 64//57
f 21//58 41//59 66//60
f 22//61 39//62 68//63
f 23//64 37//65 70//66
f 24//67 35//68 72//69
f 25//70 33//71 73//72
f 50//36 58//48 73//72
f 73//72 29//2 1//1
f 73//72 33//71 29//2
f 33//71 2//73 29//2
f 72//69 33//71 25//70
f 72//69 35//68 33//71
f 35//68 2//73 33//71
f 70//66 35//68 24//67
f 70//66 37//65 35//68
f 37//65 2//73 35//68
f 68//63 37//65 23//64
f 68//63 39//62 37//65
f 39//62 2//73 37//65
f 66//60 39//62 22//61
f 66//60 41//59 39//62
f 41//59 2//73 39//62
f 64//57 41//59 21//58
f 64//57 43//56 41//59
f 43//56 2//73 41//59
f 62//54 43//56 20//55
f 62//54 45//53 43//56
f 45//53 2//73 43//56
f 60//51 45//53 19//52
f 60//51 47//50 45//53
f 47//50 2//73 45//53
f 58//48 47//50 18//49
f 58//48 49//47 47//50
f 49//47 2//73 47//50
f 56//45 49//47 17//46
f 56//45 51//44 49//47
f 51//44 2//73 49//47
f 54//42 51//44 16//43
f 54//42 53//41 51//44
f 53//41 2//73 51//44
f 52//39 53//41 15//40
f 52//39 55//38 53//41
f 55//38 2//73 53//41
f 50//36 55//38 14//37
f 50//36 57//35 55//38
f 57//35 2//73 55//38
f 48//33 57//35 13//34
f 48//33 59//32 57//35
f 59//32 2//73 57//35
f 46//30 59//32 12//31
f 46//30 61//29 59//32
f 61//29 2//73 59//32
f 44//27 61//29 11//28
f 44//27 63//26 61//29
f 63//26 2//73 61//29
f 42//24 63//26 10//25
f 42//24 65//23 63//26
f 65//23 2//73 63//26
f 40//21 65//23 9//22
f 40//21 67//20 65//23
f 67//20 2//73 65//23
f 38//18 67//20 8//19
f 38//18 69//17 67//20
f 69//17 2//73 67//20
f 36//15 69//17 7//16
f 36//15 71//14 69//17
f 71//14 2//73 69//17
f 34//12 71//14 6//13
f 34//12 27//11 71//14
f 27//11 2//73 71//14
f 32//9 27//11 5//10
f 32//9 28//8 27//11
f 28//8 2//73 27//11
f 30//6 28//8 4//7
f 30//6 31//5 28//8
f 31//5 2//73 28//8
f 26//3 31//5 3//4
f 26//3 29//2 31//5
f 29//2 2//73 31//5
f 73//72 1//1 26//3
f 26//3 3//4 30//6
f 30//6 4//7 32//9
f 32//9 5//10 34//12
f 34//12 6//13 36//15
f 36//15 7//16 38//18
f 38//18 8//19 40//21
f 40//21 9//22 42//24
f 42//24 10//25 44//27
f 44//27 11//28 46//30
f 46//30 12//31 48//33
f 48//33 13//34 50//36
f 50//36 14//37 52//39
f 52//39 15//40 54//42
f 54//42 16//43 56//45
f 56//45 17//46 58//48
f 58//48 18//49 60//51
f 60//51 19//52 62//54
f 62//54 20//55 64//57
f 64//57 21//58 66//60
f 66//60 22//61 68//63
f 68//63 23//64 70//66
f 70//66 24//67 72//69
f 72//69 25//70 73//72
f 73//72 26//3 30//6
f 30//6 32//9 34//12
f 34//12 36//15 42//24
f 38//18 40//21 42//24
f 42//24 44//27 46//30
f 46//30 48//33 50//36
f 50//36 52//39 54//42
f 54//42 56//45 50//36
f 58//48 60//51 66//60
f 62//54 64//57 66//60
f 66//60 68//63 70//66
f 70//66 72//69 73//72
f 73//72 30//6 42//24
f 36//15 38//18 42//24
f 42//24 46//30 50//36
f 50//36 56//45 58//48
f 60//51 62//54 66//60
f 66//60 70//66 58//48
f 30//6 34//12 42//24
f 42//24 50//36 73//72
f 58//48 70//66 73//72
