# Blender v2.78 (sub 0) OBJ File: ''
# www.blender.org
v -1.000000 -1.000000 1.000000
v -1.000000 1.000000 1.000000
v -1.000000 -1.000000 -1.000000
v -1.000000 1.000000 -1.000000
v 1.000000 -1.000000 1.000000
v 1.000000 1.000000 1.000000
v 1.000000 -1.000000 -1.000000
v 1.000000 1.000000 -1.000000
vn 1.0 0.0 0.0
vn 0.0 1.0 0.0
vn 0.0 0.0 1.0
vn -1.0 0.0 0.0
vn 0.0 -1.0 0.0
vn 0.0 0.0 -1.0
s off
f 3//4 1//4 2//4
f 7//6 3//6 4//6
f 5//1 7//1 8//1
f 1//3 5//3 6//3
f 1//5 3//5 7//5
f 6//2 8//2 4//2
f 3//4 2//4 4//4
f 7//6 4//6 8//6
f 5//1 8//1 6//1
f 1//3 6//3 2//3
f 1//5 7//5 5//5
f 6//2 4//2 2//2
