# Blender v2.80 (sub 74) OBJ File: 'cornellbox.blend'
# www.blender.org
v -0.245503 0.511078 -0.018063
v 0.010890 0.480749 0.124900
v -0.193524 1.256309 0.100359
v 0.066776 1.245312 0.228450
v -0.226157 0.900508 0.023273
v -0.112855 0.515408 0.033291
v 0.039695 0.887599 0.159389
v -0.072335 1.252126 0.181458
v -0.097862 0.900619 0.075236
v -0.203846 0.366953 -0.056012
v -0.105535 0.434225 0.215518
v -0.385325 1.264950 -0.180979
v -0.325624 1.306069 0.035563
v -0.261047 0.843618 -0.153396
v -0.130093 0.409948 0.071777
v -0.162736 0.910890 0.118134
v -0.335230 1.303873 -0.085722
v -0.181138 0.888977 -0.027870
v 0.085122 0.384642 0.153808
v 0.278629 0.402633 -0.102590
v 0.101151 1.294317 0.190921
v 0.251666 1.301607 -0.062106
v 0.060147 0.886704 0.113322
v 0.193801 0.405413 0.028776
v 0.254328 0.882913 -0.119432
v 0.215218 1.316325 0.100425
v 0.137783 0.878336 -0.032215
v -0.203250 0.587610 0.116057
v 0.167723 0.604113 0.078947
v -0.180617 1.557565 0.130702
v 0.151331 1.573103 0.067651
v -0.176970 1.086856 0.104908
v 0.009504 0.621154 0.065543
v 0.173253 1.077613 0.094336
v -0.029547 1.584714 0.070933
v -0.028247 1.110245 0.068268
v -0.273993 0.313550 0.042586
v 0.068999 0.332600 0.198654
v -0.376885 1.263692 0.065661
v -0.082878 1.222713 0.230382
v -0.301686 0.802627 0.043747
v -0.124529 0.316206 0.130940
v 0.022672 0.826466 0.198430
v -0.205241 1.232307 0.148388
v -0.114586 0.820981 0.104440
v -0.015176 0.523145 0.200018
v 0.291744 0.513545 -0.019237
v 0.166649 1.468199 0.290547
v 0.473568 1.458599 0.071292
v 0.023828 1.057422 0.227699
v 0.138284 0.518345 0.090391
v 0.330748 1.047822 0.008444
v 0.320109 1.463399 0.180919
v 0.154625 1.067401 0.101946
v -0.129720 0.528775 0.225730
v 0.163184 0.510761 0.194460
v -0.048655 1.276076 0.309781
v 0.238114 1.277493 0.264547
v -0.105571 0.918847 0.257346
v 0.008009 0.539364 0.191525
v 0.190429 0.918639 0.215437
v 0.097175 1.277759 0.306293
v 0.029121 0.925025 0.226045
v -0.134254 0.575889 -0.054564
v 0.156211 0.663135 0.059362
v -0.316693 1.385359 -0.035341
v -0.026228 1.472606 0.078585
v -0.248062 1.019933 -0.099453
v 0.010979 0.619512 0.002399
v 0.042403 1.107179 0.014473
v -0.171460 1.428982 0.021622
v -0.104135 1.071514 -0.068305
v -0.002866 0.476822 -0.254220
v -0.267348 0.527076 -0.129952
v 0.194391 1.371103 -0.126548
v -0.017674 1.405761 -0.049263
v 0.133021 0.935927 -0.150672
v -0.126240 0.501797 -0.166055
v -0.131462 0.986181 -0.026405
v 0.102960 1.397820 -0.063105
v 0.012134 0.960865 -0.055995
v 0.266720 0.317484 -0.075521
v -0.063506 0.331721 -0.248780
v 0.260393 1.286701 -0.121532
v -0.051495 1.300836 -0.251658
v 0.240970 0.816622 -0.091639
v 0.061380 0.350334 -0.151003
v -0.057455 0.804733 -0.275090
v 0.101466 1.313858 -0.155243
v 0.096699 0.839554 -0.143292
vt 0.908678 0.240574
vt 0.813903 0.438159
vt 0.815447 0.241413
vt 0.720116 0.438055
vt 0.722215 0.242253
vt 0.816990 0.044667
vt 0.724314 0.046450
vt 0.909666 0.042884
vt 0.907691 0.438263
vt 0.178004 0.738812
vt 0.234995 0.939525
vt 0.176943 0.940870
vt 0.118891 0.942215
vt 0.115195 0.739169
vt 0.179064 0.536754
vt 0.111499 0.536123
vt 0.240812 0.738455
vt 0.246629 0.537385
vt 0.479340 0.729395
vt 0.568204 0.938559
vt 0.474900 0.932660
vt 0.380797 0.726613
vt 0.381595 0.926761
vt 0.483781 0.526130
vt 0.379998 0.526464
vt 0.587565 0.525795
vt 0.577884 0.732177
vt 0.818827 0.725532
vt 0.900447 0.909585
vt 0.815352 0.911412
vt 0.730257 0.913240
vt 0.731873 0.726613
vt 0.822302 0.539651
vt 0.733489 0.539986
vt 0.905781 0.724451
vt 0.911115 0.539317
vt 0.185247 0.242138
vt 0.270731 0.427639
vt 0.183704 0.429950
vt 0.096362 0.244667
vt 0.096678 0.432260
vt 0.186791 0.054325
vt 0.096046 0.057075
vt 0.277536 0.051576
vt 0.274133 0.239608
vt 0.620380 0.241057
vt 0.549268 0.428501
vt 0.549845 0.244311
vt 0.482041 0.431294
vt 0.479310 0.247565
vt 0.550423 0.060120
vt 0.476580 0.063835
vt 0.616495 0.425708
vt 0.624266 0.056406
vt 0.908678 0.240574
vt 0.813903 0.438159
vt 0.815447 0.241413
vt 0.720116 0.438055
vt 0.722215 0.242253
vt 0.816990 0.044667
vt 0.724314 0.046450
vt 0.909666 0.042884
vt 0.907691 0.438263
vt 0.620380 0.241057
vt 0.549268 0.428501
vt 0.549845 0.244311
vt 0.482041 0.431294
vt 0.479310 0.247565
vt 0.550423 0.060120
vt 0.476580 0.063835
vt 0.616495 0.425708
vt 0.624266 0.056406
vt 0.178004 0.738812
vt 0.234995 0.939525
vt 0.176943 0.940870
vt 0.118891 0.942215
vt 0.115195 0.739169
vt 0.179064 0.536754
vt 0.111499 0.536123
vt 0.240812 0.738455
vt 0.246629 0.537385
vt 0.818827 0.725532
vt 0.900447 0.909585
vt 0.815352 0.911412
vt 0.730257 0.913240
vt 0.731873 0.726613
vt 0.822302 0.539651
vt 0.733489 0.539986
vt 0.905781 0.724451
vt 0.911115 0.539317
vn -0.5246 -0.2111 0.8248
vn -0.3702 -0.1641 0.9143
vn -0.3575 -0.0810 0.9304
vn -0.6051 -0.0629 0.7936
vn -0.3230 -0.1558 0.9335
vn -0.5492 -0.2049 0.8102
vn -0.3739 -0.0860 0.9235
vn -0.5240 -0.0350 0.8510
vn -0.9380 -0.3372 0.0804
vn -0.7935 -0.1963 0.5761
vn -0.8659 -0.0017 0.5003
vn -0.9877 -0.0770 0.1360
vn -0.9233 -0.3454 0.1682
vn -0.8191 -0.2310 0.5251
vn -0.8467 0.0204 0.5317
vn -0.9802 -0.0806 0.1811
vn 0.9431 -0.2373 0.2330
vn 0.6323 -0.2058 0.7469
vn 0.7442 0.0904 0.6619
vn 0.8299 0.1670 0.5324
vn 0.5985 -0.1049 0.7942
vn 0.8378 -0.2885 0.4635
vn 0.8744 0.1625 0.4571
vn 0.5967 0.0583 0.8004
vn 0.0178 -0.0056 0.9998
vn 0.2465 -0.0511 0.9678
vn 0.2296 0.0097 0.9732
vn -0.1308 -0.0156 0.9913
vn -0.1205 0.0481 0.9915
vn 0.3685 -0.0042 0.9296
vn 0.2373 0.0129 0.9714
vn -0.0877 -0.0313 0.9957
vn -0.5557 -0.2085 0.8048
vn -0.4483 -0.1152 0.8864
vn -0.5082 -0.0308 0.8607
vn -0.3340 0.0560 0.9409
vn -0.5465 -0.2109 0.8104
vn -0.2897 -0.1646 0.9429
vn -0.3130 0.0559 0.9481
vn -0.5628 -0.0524 0.8249
vn 0.4111 -0.3404 0.8456
vn 0.6664 -0.3337 0.6667
vn 0.5775 -0.0842 0.8121
vn 0.4658 -0.0325 0.8843
vn 0.5464 -0.3091 0.7784
vn 0.5314 -0.3737 0.7602
vn 0.6940 -0.0358 0.7190
vn 0.0547 -0.2315 0.9713
vn 0.2305 -0.1772 0.9568
vn 0.2467 -0.0935 0.9646
vn -0.0349 -0.0872 0.9956
vn 0.2797 -0.1666 0.9455
vn 0.0259 -0.2265 0.9737
vn 0.2296 -0.0992 0.9682
vn 0.0633 -0.0555 0.9964
vn -0.4146 -0.2947 0.8610
vn -0.1396 -0.1965 0.9705
vn -0.3653 0.0005 0.9309
vn -0.4937 0.0103 0.8696
vn -0.2985 -0.2190 0.9289
vn -0.2754 -0.2830 0.9187
vn -0.2413 0.0897 0.9663
vn -0.1135 0.0074 -0.9935
vn -0.5950 0.1279 -0.7935
vn -0.5040 0.3293 -0.7985
vn -0.1479 0.2725 -0.9507
vn -0.2016 0.0013 -0.9795
vn -0.5473 0.1002 -0.8309
vn -0.5333 0.3458 -0.7720
vn -0.1930 0.2699 -0.9433
vn 0.5347 -0.0267 -0.8446
vn 0.3258 -0.0734 -0.9426
vn 0.3432 -0.0126 -0.9392
vn 0.6540 -0.0353 -0.7556
vn 0.6459 0.0283 -0.7629
vn 0.2031 -0.0267 -0.9788
vn 0.3357 -0.0094 -0.9419
vn 0.6204 -0.0515 -0.7826
s off
f 7/1/1 8/2/1 9/3/1
f 9/3/2 3/4/2 5/5/2
f 6/6/3 5/5/3 1/7/3
f 2/8/4 9/3/4 6/6/4
f 7/1/5 4/9/5 8/2/5
f 9/3/6 8/2/6 3/4/6
f 6/6/7 9/3/7 5/5/7
f 2/8/8 7/1/8 9/3/8
f 18/10/9 13/11/9 17/12/9
f 18/10/10 12/13/10 14/14/10
f 15/15/11 14/14/11 10/16/11
f 15/15/12 16/17/12 18/10/12
f 18/10/13 16/17/13 13/11/13
f 18/10/14 17/12/14 12/13/14
f 15/15/15 18/10/15 14/14/15
f 15/15/16 11/18/16 16/17/16
f 27/19/17 22/20/17 26/21/17
f 23/22/18 26/21/18 21/23/18
f 24/24/19 23/22/19 19/25/19
f 20/26/20 27/19/20 24/24/20
f 27/19/21 25/27/21 22/20/21
f 23/22/22 27/19/22 26/21/22
f 24/24/23 27/19/23 23/22/23
f 20/26/24 25/27/24 27/19/24
f 36/28/25 31/29/25 35/30/25
f 36/28/26 30/31/26 32/32/26
f 33/33/27 32/32/27 28/34/27
f 33/33/28 34/35/28 36/28/28
f 36/28/29 34/35/29 31/29/29
f 36/28/30 35/30/30 30/31/30
f 33/33/31 36/28/31 32/32/31
f 33/33/32 29/36/32 34/35/32
f 45/37/33 40/38/33 44/39/33
f 41/40/34 44/39/34 39/41/34
f 42/42/35 41/40/35 37/43/35
f 38/44/36 45/37/36 42/42/36
f 45/37/37 43/45/37 40/38/37
f 41/40/38 45/37/38 44/39/38
f 42/42/39 45/37/39 41/40/39
f 38/44/40 43/45/40 45/37/40
f 52/46/41 53/47/41 54/48/41
f 54/48/42 48/49/42 50/50/42
f 51/51/43 50/50/43 46/52/43
f 51/51/44 52/46/44 54/48/44
f 52/46/45 49/53/45 53/47/45
f 54/48/46 53/47/46 48/49/46
f 51/51/47 54/48/47 50/50/47
f 51/51/43 47/54/43 52/46/43
f 61/55/48 62/56/48 63/57/48
f 63/57/49 57/58/49 59/59/49
f 60/60/50 59/59/50 55/61/50
f 56/62/51 63/57/51 60/60/51
f 61/55/52 58/63/52 62/56/52
f 63/57/53 62/56/53 57/58/53
f 60/60/54 63/57/54 59/59/54
f 56/62/55 61/55/55 63/57/55
f 70/64/56 71/65/56 72/66/56
f 72/66/57 66/67/57 68/68/57
f 69/69/58 68/68/58 64/70/58
f 69/69/59 70/64/59 72/66/59
f 70/64/60 67/71/60 71/65/60
f 72/66/61 71/65/61 66/67/61
f 69/69/62 72/66/62 68/68/62
f 69/69/58 65/72/58 70/64/58
f 81/73/63 76/74/63 80/75/63
f 81/73/64 75/76/64 77/77/64
f 78/78/65 77/77/65 73/79/65
f 78/78/66 79/80/66 81/73/66
f 81/73/67 79/80/67 76/74/67
f 81/73/68 80/75/68 75/76/68
f 78/78/69 81/73/69 77/77/69
f 78/78/70 74/81/70 79/80/70
f 90/82/71 85/83/71 89/84/71
f 90/82/72 84/85/72 86/86/72
f 87/87/73 86/86/73 82/88/73
f 87/87/74 88/89/74 90/82/74
f 90/82/75 88/89/75 85/83/75
f 90/82/76 89/84/76 84/85/76
f 87/87/77 90/82/77 86/86/77
f 87/87/78 83/90/78 88/89/78
