v 0.04 1.2 -0.09
v -0.71 1.2 -0.49
v -0.53 1.2 0.09
v -0.53 1.2 0.09
v -0.71 0 -0.49
v -0.53 -0 0.09
v -0.71 1.2 -0.49
v -0.14 0 -0.67
v -0.71 0 -0.49
v -0.14 1.2 -0.67
v 0.04 0 -0.09
v -0.14 0 -0.67
v 0.04 1.2 -0.09
v -0.53 -0 0.09
v 0.04 0 -0.09
v -0.14 1.2 -0.67
v -0.71 1.2 -0.49
v -0.14 1.2 -0.67
v 0.04 1.2 -0.09
v -0.53 1.2 0.09
vn 0 1 0
vn 0 1 0
vn 0 1 0
vn -0.9551 0 0.2964
vn -0.9551 0 0.2964
vn -0.9551 0 0.2964
vn -0.3011 0 -0.9536
vn -0.3011 0 -0.9536
vn -0.3011 0 -0.9536
vn 0.9551 0 -0.2964
vn 0.9551 0 -0.2964
vn 0.9551 0 -0.2964
vn 0.3011 -0 0.9536
vn 0.3011 -0 0.9536
vn 0.3011 -0 0.9536
vn 0 1 0
vn -0.9551 0 0.2964
vn -0.3011 0 -0.9536
vn 0.9551 0 -0.2964
vn 0.3011 -0 0.9536
vt 0.5 0.5
f 1/1/1 2/1/2 3/1/3
f 4/1/4 5/1/5 6/1/6
f 7/1/7 8/1/8 9/1/9
f 10/1/10 11/1/11 12/1/12
f 13/1/13 14/1/14 15/1/15
f 1/1/1 16/1/16 2/1/2
f 4/1/4 17/1/17 5/1/5
f 7/1/7 18/1/18 8/1/8
f 10/1/10 19/1/19 11/1/11
f 13/1/13 20/1/20 14/1/14
