# Blender v2.80 (sub 74) OBJ File: ''
# www.blender.org
v 0.040000 1.200000 -0.090000
v -0.710000 1.200000 -0.490000
v -0.530000 1.200000 0.090000
v -0.530000 1.200000 0.090000
v -0.710000 0.000000 -0.490000
v -0.530000 -0.000000 0.090000
v -0.710000 1.200000 -0.490000
v -0.140000 0.000000 -0.670000
v -0.710000 0.000000 -0.490000
v -0.140000 1.200000 -0.670000
v 0.040000 0.000000 -0.090000
v -0.140000 0.000000 -0.670000
v 0.040000 1.200000 -0.090000
v -0.530000 -0.000000 0.090000
v 0.040000 0.000000 -0.090000
v -0.140000 1.200000 -0.670000
v -0.710000 1.200000 -0.490000
v -0.140000 1.200000 -0.670000
v 0.040000 1.200000 -0.090000
v -0.530000 1.200000 0.090000
vt 0.753558 0.298918
vt 0.269050 0.788766
vt 0.269050 0.296516
vt 0.502516 0.988119
vt 0.006376 0.007601
vt 0.502576 0.007632
vt 0.007172 0.988116
vt 0.504693 0.008934
vt 0.006965 0.015433
vt 0.507302 0.978272
vt 0.993411 0.001197
vt 0.507389 0.005589
vt 0.994475 0.988665
vt 0.506073 0.008177
vt 0.994475 0.008177
vt 0.753558 0.791168
vt 0.006316 0.988089
vt 0.504901 0.981617
vt 0.993324 0.973880
vt 0.506073 0.988665
vn 0.0000 1.0000 0.0000
vn -0.9551 0.0000 0.2964
vn -0.3011 0.0000 -0.9536
vn 0.9551 0.0000 -0.2964
vn 0.3011 -0.0000 0.9536
s 1
f 1/1/1 2/2/1 3/3/1
f 4/4/2 5/5/2 6/6/2
f 7/7/3 8/8/3 9/9/3
f 10/10/4 11/11/4 12/12/4
f 13/13/5 14/14/5 15/15/5
f 1/1/1 16/16/1 2/2/1
f 4/4/2 17/17/2 5/5/2
f 7/7/3 18/18/3 8/8/3
f 10/10/4 19/19/4 11/11/4
f 13/13/5 20/20/5 14/14/5
